<svg width="1440.715625px" height="336.8px" xmlns="http://www.w3.org/2000/svg" viewBox="-470.3578125 -93.4 1440.715625 336.8" style="background: rgba(0, 0, 0, 0);" preserveAspectRatio="xMidYMid"><defs><filter id="editing-extrude-glow"><feFlood flood-color="#333333" result="flood-1"></feFlood><feMorphology operator="erode" radius="1" in="SourceAlpha" result="erode"></feMorphology><feComposite operator="in" in="flood-1" in2="erode" result="comp1"></feComposite><feConvolveMatrix order="3,3" divisor="1" in="comp1" result="convolve" kernelMatrix="0 0 0 1 1 1 0 0 0"></feConvolveMatrix><feOffset dx="-3" dy="0" in="convolve" result="extrude"></feOffset><feComposite operator="in" in="flood-1" in2="extrude" result="comp-extrude"></feComposite><feFlood flood-color="#000000" result="flood-2"></feFlood><feComposite operator="in" in="flood-2" in2="SourceAlpha" result="comp2"></feComposite><feMorphology operator="dilate" radius="1" in="comp2" result="dilate"></feMorphology><feOffset dx="-4.5" dy="0" in="dilate" result="offset"></feOffset><feGaussianBlur in="offset" stdDeviation="5.8" result="blur"></feGaussianBlur><feComponentTransfer in="blur" result="shadow"><feFuncA type="linear" slope="0.8" intercept="-0.2"></feFuncA></feComponentTransfer><feMerge><feMergeNode in="shadow"></feMergeNode><feMergeNode in="comp-extrude"></feMergeNode><feMergeNode in="SourceGraphic"></feMergeNode></feMerge></filter></defs><g filter="url(#editing-extrude-glow)"><g transform="translate(-271.06286013126373, 150)"><path d="M44.20 0L1.60 0L24.40-121.60L26.60-132L69.40-132L44.20 0ZM125.40-11.80L125.40-11.80L125.40-11.80Q120 4 99.20 4L99.20 4L99.20 4Q83.80 4 73.20-14.40L73.20-14.40L73.20-14.40Q62.40-32.80 60.40-62.80L60.40-62.80L60.40-62.80Q82.40-103 97.60-119.60L97.60-119.60L97.60-119.60Q112.20-135.40 127.40-135.40L127.40-135.40L127.40-135.40Q135.60-135.40 141.50-131L141.50-131L141.50-131Q147.40-126.60 148.80-119.60L148.80-119.60L148.80-119.60Q142-116.80 138.80-114.60L138.80-114.60L138.80-114.60Q130.80-108.60 120-95.20L120-95.20L101.80-73.40L101.80-73.40Q97.40-68.20 95.60-65.80L95.60-65.80L95.60-65.80Q98.60-49 107.60-32.40L107.60-32.40L107.60-32.40Q116.20-16.60 125.40-11.80ZM190.40-11L190.40-11L190.40-11Q184.20 4 164.40 4L164.40 4L164.40 4Q154.20 4 147.80-3L147.80-3L147.80-3Q142.40-9.20 142.40-15.40L142.40-15.40L142.40-15.40Q142.40-31.60 149.80-63.20L149.80-63.20L157.20-102L197.80-106L185.60-42.80L185.60-42.80Q182.20-28 182.20-22.80L182.20-22.80L182.20-22.80Q182.20-11.40 190.40-11ZM160.80-129.80L160.80-129.80L160.80-129.80Q160.80-137.60 167.30-141.80L167.30-141.80L167.30-141.80Q173.80-146 183.20-146L183.20-146L183.20-146Q192.60-146 198.30-141.80L198.30-141.80L198.30-141.80Q204-137.60 204-129.80L204-129.80L204-129.80Q204-122 197.70-118L197.70-118L197.70-118Q191.40-114 182-114L182-114L182-114Q172.60-114 166.70-118L166.70-118L166.70-118Q160.80-122 160.80-129.80ZM245.90 2L245.90 2L245.90 2Q236.40 0 231.50-0.90L231.50-0.90L231.50-0.90Q226.60-1.80 220.90-1.80L220.90-1.80L220.90-1.80Q215.20-1.80 209.60 0.20L209.60 0.20L209.60 0.20Q206.60-1.60 204.70-5.20L204.70-5.20L204.70-5.20Q202.80-8.80 202.80-14.40L202.80-14.40L202.80-14.40Q202.80-26.20 214.80-35.20L214.80-35.20L265.60-71.80L265.60-71.80Q251.40-75.80 238.50-75.80L238.50-75.80L238.50-75.80Q225.60-75.80 221-67L221-67L221-67Q214.20-75 214.20-87.60L214.20-87.60L214.20-87.60Q214.20-96 220.30-101.50L220.30-101.50L220.30-101.50Q226.40-107 239.20-107L239.20-107L239.20-107Q246.40-107 252.90-106.10L252.90-106.10L252.90-106.10Q259.40-105.20 265.20-104.40L265.20-104.40L276-102.80L276-102.80Q281.20-102 286.50-102L286.50-102L286.50-102Q291.80-102 295.80-104.20L295.80-104.20L295.80-104.20Q301-99.40 301-92.80L301-92.80L301-92.80Q301-82.40 288.20-71.60L288.20-71.60L237.60-33.80L237.60-33.80Q253.20-29.20 261.20-29.20L261.20-29.20L261.20-29.20Q278-29.20 285.20-37.20L285.20-37.20L285.20-37.20Q290.80-30.80 290.80-19.70L290.80-19.70L290.80-19.70Q290.80-8.60 283.60-2.30L283.60-2.30L283.60-2.30Q276.40 4 263.40 4L263.40 4L263.40 4Q255.40 4 245.90 2ZM346.70 2L346.70 2L346.70 2Q337.20 0 332.30-0.90L332.30-0.90L332.30-0.90Q327.40-1.80 321.70-1.80L321.70-1.80L321.70-1.80Q316-1.80 310.40 0.20L310.40 0.20L310.40 0.20Q307.40-1.60 305.50-5.20L305.50-5.20L305.50-5.20Q303.60-8.80 303.60-14.40L303.60-14.40L303.60-14.40Q303.60-26.20 315.60-35.20L315.60-35.20L366.40-71.80L366.40-71.80Q352.20-75.80 339.30-75.80L339.30-75.80L339.30-75.80Q326.40-75.80 321.80-67L321.80-67L321.80-67Q315-75 315-87.60L315-87.60L315-87.60Q315-96 321.10-101.50L321.10-101.50L321.10-101.50Q327.20-107 340-107L340-107L340-107Q347.20-107 353.70-106.10L353.70-106.10L353.70-106.10Q360.20-105.20 366-104.40L366-104.40L376.80-102.80L376.80-102.80Q382-102 387.30-102L387.30-102L387.30-102Q392.60-102 396.60-104.20L396.60-104.20L396.60-104.20Q401.80-99.40 401.80-92.80L401.80-92.80L401.80-92.80Q401.80-82.40 389-71.60L389-71.60L338.40-33.80L338.40-33.80Q354-29.20 362-29.20L362-29.20L362-29.20Q378.80-29.20 386-37.20L386-37.20L386-37.20Q391.60-30.80 391.60-19.70L391.60-19.70L391.60-19.70Q391.60-8.60 384.40-2.30L384.40-2.30L384.40-2.30Q377.20 4 364.20 4L364.20 4L364.20 4Q356.20 4 346.70 2ZM457-11L457-11L457-11Q450.80 4 431 4L431 4L431 4Q420.80 4 414.40-3L414.40-3L414.40-3Q409-9.20 409-15.40L409-15.40L409-15.40Q409-31.60 416.40-63.20L416.40-63.20L423.80-102L464.40-106L452.20-42.80L452.20-42.80Q448.80-28 448.80-22.80L448.80-22.80L448.80-22.80Q448.80-11.40 457-11ZM427.40-129.80L427.40-129.80L427.40-129.80Q427.40-137.60 433.90-141.80L433.90-141.80L433.90-141.80Q440.40-146 449.80-146L449.80-146L449.80-146Q459.20-146 464.90-141.80L464.90-141.80L464.90-141.80Q470.60-137.60 470.60-129.80L470.60-129.80L470.60-129.80Q470.60-122 464.30-118L464.30-118L464.30-118Q458-114 448.60-114L448.60-114L448.60-114Q439.20-114 433.30-118L433.30-118L433.30-118Q427.40-122 427.40-129.80ZM593.20-92.40L593.20-92.40L593.20-92.40Q596.20-98.40 596.20-104L596.20-104L596.20-104Q596.20-109.60 595.60-112.70L595.60-112.70L595.60-112.70Q595-115.80 593.60-118.20L593.60-118.20L593.60-118.20Q590.60-123.40 584.60-123.40L584.60-123.40L584.60-123.40Q577.20-123.40 571.20-118L571.20-118L571.20-118Q564.80-112.40 564.80-103.60L564.80-103.60L564.80-103.60Q564.80-98 568.70-93.70L568.70-93.70L568.70-93.70Q572.60-89.40 578.60-85.40L578.60-85.40L578.60-85.40Q584.60-81.40 591.40-77.40L591.40-77.40L591.40-77.40Q598.20-73.40 604.20-68.60L604.20-68.60L604.20-68.60Q618-57.60 618-42.80L618-42.80L618-42.80Q618-32.80 612.70-24.30L612.70-24.30L612.70-24.30Q607.40-15.80 598.60-9.60L598.60-9.60L598.60-9.60Q579.40 4 554 4L554 4L554 4Q533.40 4 522.80-2.70L522.80-2.70L522.80-2.70Q512.20-9.40 512.20-19.60L512.20-19.60L512.20-19.60Q512.20-37.80 526.40-42.40L526.40-42.40L526.40-42.40Q530.40-43.80 536.50-43.80L536.50-43.80L536.50-43.80Q542.60-43.80 549.60-41.20L549.60-41.20L549.60-41.20Q546.40-33 546.40-25.60L546.40-25.60L546.40-25.60Q546.40-9.60 557.80-9.60L557.80-9.60L557.80-9.60Q565.20-9.60 571.30-15L571.30-15L571.30-15Q577.40-20.40 577.40-26.50L577.40-26.50L577.40-26.50Q577.40-32.60 573.50-37L573.50-37L573.50-37Q569.60-41.40 563.80-44.90L563.80-44.90L563.80-44.90Q558-48.40 551.30-51.80L551.30-51.80L551.30-51.80Q544.60-55.20 538.80-60L538.80-60L538.80-60Q525.20-71 525.20-88.60L525.20-88.60L525.20-88.60Q525.20-100 530.80-108.90L530.80-108.90L530.80-108.90Q536.40-117.80 545.40-123.80L545.40-123.80L545.40-123.80Q563.40-136 585.50-136L585.50-136L585.50-136Q607.60-136 618.30-129.40L618.30-129.40L618.30-129.40Q629-122.80 629-111.60L629-111.60L629-111.60Q629-101.80 621.40-95.60L621.40-95.60L621.40-95.60Q614.80-90.40 606.80-90.40L606.80-90.40L606.80-90.40Q598.80-90.40 593.20-92.40ZM707.80-15L707.80-15L707.80-15Q707.80-29 713.40-57L713.40-57L683.80-57L672.80 0L631 0L656.40-132L698.60-132L687-73L716.60-73L727.60-132L769.80-132L769.80-132Q767-117.20 763.40-100.60L763.40-100.60L756.60-68L756.60-68Q749-30 749-13.40L749-13.40L749-13.40Q749-6.60 751.20-2.80L751.20-2.80L751.20-2.80Q741.20 4 729.50 4L729.50 4L729.50 4Q717.80 4 712.80-1.60L712.80-1.60L712.80-1.60Q707.80-7.20 707.80-15ZM777.60-48.80L777.60-48.80L777.60-48.80Q777.60-86.60 797.20-110.40L797.20-110.40L797.20-110.40Q818.00-136.20 854.20-136.20L854.20-136.20L854.20-136.20Q880.40-136.20 893.60-123.50L893.60-123.50L893.60-123.50Q906.80-110.80 906.80-84L906.80-84L906.80-84Q906.80-43.20 886-19.40L886-19.40L886-19.40Q865.40 4 830.80 4L830.80 4L830.80 4Q803.80 4 790.70-9.50L790.70-9.50L790.70-9.50Q777.60-23 777.60-48.80ZM830.20-90.20L830.20-90.20L830.20-90.20Q821.20-54.20 821.20-25.80L821.20-25.80L821.20-25.80Q821.20-19 823.50-14.60L823.50-14.60L823.50-14.60Q825.80-10.20 831.90-10.20L831.90-10.20L831.90-10.20Q838.00-10.20 841.80-13.10L841.80-13.10L841.80-13.10Q845.60-16 848.60-22.60L848.60-22.60L848.60-22.60Q853.40-33.40 857.90-56.30L857.90-56.30L857.90-56.30Q862.40-79.20 862.80-88.70L862.80-88.70L862.80-88.70Q863.20-98.20 863.20-105.40L863.20-105.40L863.20-105.40Q863.20-112.60 861-117.20L861-117.20L861-117.20Q858.80-121.80 852.90-121.80L852.90-121.80L852.90-121.80Q847.00-121.80 843.00-118.20L843.00-118.20L843.00-118.20Q835.60-111.40 830.20-90.20ZM994.80-133.40L994.80-133.40L994.80-133.40Q1043.80-133.40 1043.80-98.80L1043.80-98.80L1043.80-98.80Q1043.80-79.80 1031.60-68.40L1031.60-68.40L1031.60-68.40Q1019.60-57 998.60-57L998.60-57L998.60-57Q988.80-57 981.20-62.60L981.20-62.60L981.20-62.60Q977.60-65 975.20-68.20L975.20-68.20L975.20-68.20Q989.80-68.20 997.50-77.10L997.50-77.10L997.50-77.10Q1005.20-86 1005.20-103.40L1005.20-103.40L1005.20-103.40Q1005.20-120.80 988.00-120.80L988.00-120.80L983.20-120.80L983.20-120.80Q982.00-120.80 981.00-120.60L981.00-120.60L958.00 0L914.60 0L939.20-131L939.20-131Q960.60-133 973.00-133.20L973.00-133.20L973.00-133.20Q985.40-133.40 994.80-133.40Z" fill="#eb6c6c"></path></g></g><style>text {
  font-size: 64px;
  font-family: Arial Black;
  dominant-baseline: central;
  text-anchor: middle;
}</style></svg>