<svg width="224px" height="336.8px" xmlns="http://www.w3.org/2000/svg" viewBox="138 -93.4 224 336.8" style="background: rgba(0, 0, 0, 0);" preserveAspectRatio="xMidYMid"><defs><filter id="editing-extrude-glow"><feFlood flood-color="#333333" result="flood-1"></feFlood><feMorphology operator="erode" radius="1" in="SourceAlpha" result="erode"></feMorphology><feComposite operator="in" in="flood-1" in2="erode" result="comp1"></feComposite><feConvolveMatrix order="3,3" divisor="1" in="comp1" result="convolve" kernelMatrix="0 0 0 1 1 1 0 0 0"></feConvolveMatrix><feOffset dx="-3" dy="0" in="convolve" result="extrude"></feOffset><feComposite operator="in" in="flood-1" in2="extrude" result="comp-extrude"></feComposite><feFlood flood-color="#000000" result="flood-2"></feFlood><feComposite operator="in" in="flood-2" in2="SourceAlpha" result="comp2"></feComposite><feMorphology operator="dilate" radius="1" in="comp2" result="dilate"></feMorphology><feOffset dx="-4.5" dy="0" in="dilate" result="offset"></feOffset><feGaussianBlur in="offset" stdDeviation="5.8" result="blur"></feGaussianBlur><feComponentTransfer in="blur" result="shadow"><feFuncA type="linear" slope="0.8" intercept="-0.2"></feFuncA></feComponentTransfer><feMerge><feMergeNode in="shadow"></feMergeNode><feMergeNode in="comp-extrude"></feMergeNode><feMergeNode in="SourceGraphic"></feMergeNode></feMerge></filter></defs><g filter="url(#editing-extrude-glow)"><g transform="translate(180.30093228816986, 144.6999969482422)"><path d="M44.20 0L1.60 0L24.40-121.60L26.60-132L69.40-132L44.20 0ZM125.40-11.80L125.40-11.80L125.40-11.80Q120 4 99.20 4L99.20 4L99.20 4Q83.80 4 73.20-14.40L73.20-14.40L73.20-14.40Q62.40-32.80 60.40-62.80L60.40-62.80L60.40-62.80Q82.40-103 97.60-119.60L97.60-119.60L97.60-119.60Q112.20-135.40 127.40-135.40L127.40-135.40L127.40-135.40Q135.60-135.40 141.50-131L141.50-131L141.50-131Q147.40-126.60 148.80-119.60L148.80-119.60L148.80-119.60Q142-116.80 138.80-114.60L138.80-114.60L138.80-114.60Q130.80-108.60 120-95.20L120-95.20L101.80-73.40L101.80-73.40Q97.40-68.20 95.60-65.80L95.60-65.80L95.60-65.80Q98.60-49 107.60-32.40L107.60-32.40L107.60-32.40Q116.20-16.60 125.40-11.80Z" fill="#eb6c6c"></path></g></g><style>text {
  font-size: 64px;
  font-family: Arial Black;
  dominant-baseline: central;
  text-anchor: middle;
}</style></svg>